<svg width="40" height="40" viewBox="0 0 40 40" fill="none" xmlns="http://www.w3.org/2000/svg">
  <!-- Airport Terminal Building -->
  <rect x="8" y="20" width="24" height="12" fill="#D1D5DB" stroke="#6B7280" stroke-width="1"/>
  
  <!-- Windows on terminal -->
  <rect x="10" y="22" width="2" height="2" fill="#6B7280"/>
  <rect x="14" y="22" width="2" height="2" fill="#6B7280"/>
  <rect x="18" y="22" width="2" height="2" fill="#6B7280"/>
  <rect x="22" y="22" width="2" height="2" fill="#6B7280"/>
  <rect x="26" y="22" width="2" height="2" fill="#6B7280"/>
  
  <!-- Control Tower -->
  <rect x="6" y="12" width="4" height="20" fill="#D1D5DB" stroke="#6B7280" stroke-width="1"/>
  <rect x="5" y="10" width="6" height="4" fill="#9CA3AF" stroke="#6B7280" stroke-width="1"/>
  
  <!-- Airport Sign -->
  <rect x="12" y="18" width="16" height="4" fill="#3B82F6" stroke="#1D4ED8" stroke-width="1"/>
  <text x="20" y="21" text-anchor="middle" fill="white" font-family="Arial, sans-serif" font-size="3" font-weight="bold">AIRPORT</text>
  
  <!-- Airplane -->
  <path d="M28 16 L32 18 L30 20 L26 18 Z" fill="#E5E7EB" stroke="#6B7280" stroke-width="1"/>
  <rect x="26" y="18" width="6" height="2" fill="#E5E7EB" stroke="#6B7280" stroke-width="1"/>
  <path d="M30 18 L32 16 L32 20 Z" fill="#3B82F6" stroke="#1D4ED8" stroke-width="1"/>
  
  <!-- Airplane windows -->
  <circle cx="27" cy="19" r="0.5" fill="#6B7280"/>
  <circle cx="29" cy="19" r="0.5" fill="#6B7280"/>
</svg> 