<svg width="120" height="120" viewBox="0 0 120 120" fill="none" xmlns="http://www.w3.org/2000/svg">
  <!-- Ground line -->
  <line x1="10" y1="110" x2="110" y2="110" stroke="black" stroke-width="2"/>
  
  <!-- Main building body -->
  <rect x="20" y="30" width="60" height="80" fill="white" stroke="black" stroke-width="2"/>
  
  <!-- Top section (set-back) -->
  <rect x="25" y="20" width="50" height="15" fill="white" stroke="black" stroke-width="2"/>
  
  <!-- Windows - Front face (vertical columns) -->
  <!-- Column 1 -->
  <rect x="25" y="35" width="8" height="12" fill="#ff69b4" stroke="black" stroke-width="1"/>
  <rect x="25" y="52" width="8" height="12" fill="#ff1493" stroke="black" stroke-width="1"/>
  <rect x="25" y="69" width="8" height="12" fill="#ff69b4" stroke="black" stroke-width="1"/>
  <rect x="25" y="86" width="8" height="12" fill="#ff1493" stroke="black" stroke-width="1"/>
  
  <!-- Column 2 -->
  <rect x="38" y="35" width="8" height="12" fill="#ff1493" stroke="black" stroke-width="1"/>
  <rect x="38" y="52" width="8" height="12" fill="#ff69b4" stroke="black" stroke-width="1"/>
  <rect x="38" y="69" width="8" height="12" fill="#ff1493" stroke="black" stroke-width="1"/>
  <rect x="38" y="86" width="8" height="12" fill="#ff69b4" stroke="black" stroke-width="1"/>
  
  <!-- Column 3 -->
  <rect x="51" y="35" width="8" height="12" fill="#ff69b4" stroke="black" stroke-width="1"/>
  <rect x="51" y="52" width="8" height="12" fill="#ff1493" stroke="black" stroke-width="1"/>
  <rect x="51" y="69" width="8" height="12" fill="#ff69b4" stroke="black" stroke-width="1"/>
  <rect x="51" y="86" width="8" height="12" fill="#ff1493" stroke="black" stroke-width="1"/>
  
  <!-- Column 4 -->
  <rect x="64" y="35" width="8" height="12" fill="#ff1493" stroke="black" stroke-width="1"/>
  <rect x="64" y="52" width="8" height="12" fill="#ff69b4" stroke="black" stroke-width="1"/>
  <rect x="64" y="69" width="8" height="12" fill="#ff1493" stroke="black" stroke-width="1"/>
  <rect x="64" y="86" width="8" height="12" fill="#ff69b4" stroke="black" stroke-width="1"/>
  
  <!-- Windows - Left side (horizontal rows) -->
  <rect x="85" y="35" width="12" height="8" fill="#ff69b4" stroke="black" stroke-width="1"/>
  <rect x="85" y="48" width="12" height="8" fill="#ff1493" stroke="black" stroke-width="1"/>
  <rect x="85" y="61" width="12" height="8" fill="#ff69b4" stroke="black" stroke-width="1"/>
  <rect x="85" y="74" width="12" height="8" fill="#ff1493" stroke="black" stroke-width="1"/>
  <rect x="85" y="87" width="12" height="8" fill="#ff69b4" stroke="black" stroke-width="1"/>
  
  <rect x="102" y="35" width="12" height="8" fill="#ff1493" stroke="black" stroke-width="1"/>
  <rect x="102" y="48" width="12" height="8" fill="#ff69b4" stroke="black" stroke-width="1"/>
  <rect x="102" y="61" width="12" height="8" fill="#ff1493" stroke="black" stroke-width="1"/>
  <rect x="102" y="74" width="12" height="8" fill="#ff69b4" stroke="black" stroke-width="1"/>
  <rect x="102" y="87" width="12" height="8" fill="#ff1493" stroke="black" stroke-width="1"/>
  
  <!-- Entrance -->
  <rect x="70" y="95" width="10" height="15" fill="#c71585" stroke="black" stroke-width="1"/>
  
  <!-- Trees -->
  <line x1="15" y1="110" x2="15" y2="105" stroke="black" stroke-width="2"/>
  <circle cx="15" cy="103" r="3" fill="white" stroke="black" stroke-width="1"/>
  
  <line x1="105" y1="110" x2="105" y2="105" stroke="black" stroke-width="2"/>
  <circle cx="105" cy="103" r="3" fill="white" stroke="black" stroke-width="1"/>
</svg> 